Coordinates
version=1
nRows=14
nColumns=24
inDegrees=yes

Units are S.I. units (second, meters, Newtons, ...)
Angles are in degrees.

endheader
time	pelvis_tilt	pelvis_list	pelvis_rotation	pelvis_tx	pelvis_ty	pelvis_tz	hip_flexion_r	hip_adduction_r	hip_rotation_r	knee_angle_r	ankle_angle_r	subtalar_angle_r	mtp_angle_r	hip_flexion_l	hip_adduction_l	hip_rotation_l	knee_angle_l	ankle_angle_l	subtalar_angle_l	mtp_angle_l	lumbar_extension	lumbar_bending	lumbar_rotation
      0.63383333	     -2.36529417	     -4.57494756	      5.82887455	     -0.45802884	      0.89692698	      0.32130627	     14.29571622	     11.08388018	     -1.37493201	    -27.70776023	     16.33836953	     -2.16092852	      1.02177487	     25.07991299	     -8.83345913	     -4.13221508	    -78.93907943	      2.26085831	     -8.15631712	      1.69655213	     -5.31401567	      5.66947928	      0.81963615
      0.63800000	     -2.45191567	     -4.37867700	      5.69602307	     -0.45254427	      0.89811868	      0.32148103	     13.65109504	     10.92878397	     -1.17012004	    -27.08115022	     16.30077569	     -2.04631648	      1.03896918	     25.74305549	     -8.51432098	     -4.32591856	    -78.43706268	      2.52405031	     -8.16047271	      1.67556676	     -5.23181738	      5.44878035	      0.94669710
      0.64216667	     -2.51102642	     -4.16168064	      5.54551713	     -0.44701928	      0.89936996	      0.32167962	     12.96270514	     10.75668574	     -0.93774329	    -26.43659807	     16.26517646	     -1.95776724	      1.06041907	     26.33270063	     -8.18446051	     -4.54168653	    -77.83485991	      2.76948473	     -8.12159113	      1.65629220	     -5.18449578	      5.19576408	      1.15391629
      0.64633333	     -2.53768415	     -3.94777601	      5.39132600	     -0.44146070	      0.90066192	      0.32189269	     12.22192601	     10.59249731	     -0.68828595	    -25.75468517	     16.25488687	     -1.90719067	      1.10006141	     26.85909624	     -7.86974215	     -4.76079829	    -77.15340809	      2.99794027	     -8.03731008	      1.63086774	     -5.17025999	      4.94764387	      1.47483368
      0.65050000	     -2.56639522	     -3.72187802	      5.21726291	     -0.43589027	      0.90194733	      0.32211355	     11.48296668	     10.40997664	     -0.43205226	    -25.07060110	     16.18645051	     -1.83361914	      1.13833758	     27.35216052	     -7.54684700	     -4.99480525	    -76.38894721	      3.23072213	     -7.93040511	      1.61625428	     -5.14973849	      4.68994573	      1.71924691
      0.65466667	     -2.58096586	     -3.50151666	      5.03496323	     -0.43030928	      0.90323120	      0.32235302	     10.71979587	     10.23288681	     -0.16179285	    -24.35877685	     16.08641074	     -1.76338587	      1.18972921	     27.80574970	     -7.23793843	     -5.22783395	    -75.55397386	      3.46205556	     -7.78961672	      1.60731375	     -5.15332478	      4.43236408	      1.99458553
      0.65883333	     -2.60540466	     -3.24869632	      4.83453376	     -0.42472090	      0.90449160	      0.32256993	      9.98019683	     10.00751244	      0.09212140	    -23.67962681	     15.97500955	     -1.67507968	      1.21410381	     28.22798496	     -6.89231087	     -5.47782855	    -74.62752672	      3.67489157	     -7.63401500	      1.61024082	     -5.13055365	      4.15347941	      2.15661173
      0.66300000	     -2.56211974	     -3.02556412	      4.63940251	     -0.41908651	      0.90580687	      0.32283021	      9.13436428	      9.82585927	      0.37316143	    -22.92431996	     15.89477810	     -1.64323934	      1.26148139	     28.55941979	     -6.60064272	     -5.71833372	    -73.64723257	      3.89240798	     -7.44963469	      1.61947767	     -5.18581225	      3.89632719	      2.47395020
      0.66716667	     -2.53993174	     -2.79074428	      4.42734650	     -0.41347873	      0.90705364	      0.32309073	      8.32845268	      9.62005331	      0.64923622	    -22.19542669	     15.76867058	     -1.59497803	      1.30578762	     28.88710272	     -6.29605391	     -5.96479328	    -72.59667303	      4.09258602	     -7.25275197	      1.63468396	     -5.21596899	      3.63051688	      2.72516181
      0.67133333	     -2.54211261	     -2.54536397	      4.19887094	     -0.40789773	      0.90822869	      0.32333826	      7.56651417	      9.38927074	      0.91389448	    -21.49271629	     15.59203596	     -1.49829292	      1.33092925	     29.21460060	     -5.97520859	     -6.20976245	    -71.47529016	      4.27438688	     -7.05614980	      1.64849169	     -5.22527879	      3.35323738	      2.90538386
      0.67550000	     -2.46341900	     -2.33061452	      3.98047504	     -0.40225297	      0.90945819	      0.32362110	      6.68158325	      9.20153341	      1.19837650	    -20.71274887	     15.48135659	     -1.49176757	      1.37961471	     29.43474898	     -5.71125923	     -6.44720487	    -70.30839405	      4.46278241	     -6.84717033	      1.67216005	     -5.31114492	      3.11010756	      3.22867049
      0.67966667	     -2.45996714	     -2.09568915	      3.73611525	     -0.39668244	      0.91052636	      0.32389278	      5.92256548	      8.97041955	      1.45941025	    -20.00884811	     15.27601362	     -1.39825882	      1.40695331	     29.71463757	     -5.41386584	     -6.68502624	    -69.07341624	      4.61775047	     -6.64236374	      1.68955140	     -5.32703142	      2.83698975	      3.41733446
      0.68383333	     -2.36777434	     -1.90289115	      3.51259972	     -0.39105683	      0.91165039	      0.32417408	      5.02603115	      8.79384938	      1.74232885	    -19.21347542	     15.14398988	     -1.40253105	      1.46538274	     29.88570595	     -5.17735391	     -6.89975136	    -67.80263454	      4.77680805	     -6.44691596	      1.71977022	     -5.42840121	      2.62588390	      3.75645653
      0.68800000	     -2.32365241	     -1.69948792	      3.26996650	     -0.38548230	      0.91263734	      0.32445707	      4.21437341	      8.59112383	      2.00747695	    -18.47295797	     14.96273093	     -1.36119811	      1.52158988	     30.08841439	     -4.92553484	     -7.11445180	    -66.47344653	      4.90486751	     -6.26045084	      1.74895802	     -5.48125080	      2.39448985	      4.01789848
